<svg xmlns="http://www.w3.org/2000/svg" viewBox="0 0 64 64">
  <defs>
    <linearGradient id="bg" x1="0%" y1="0%" x2="100%" y2="100%">
      <stop offset="0%" stop-color="#2e7d32"/>
      <stop offset="100%" stop-color="#1b5e20"/>
    </linearGradient>
  </defs>
  <circle cx="32" cy="32" r="30" fill="url(#bg)" shadow="0 4px 10px rgba(0,0,0,0.15)"/>
  <!-- Shallot bulb outer -->
  <path d="M32 16 C32 16 38 23 44 30 C50 37 48 48 38 53 C32 56 32 56 26 53 C16 48 14 37 20 30 C26 23 32 16 32 16 Z" fill="#b71c1c"/>
  <!-- Shallot bulb mid -->
  <path d="M32 18 C32 18 36 24 41 30 C46 36 45 45 36 50 C32 52 32 52 28 50 C19 45 18 36 23 30 C28 24 32 18 32 18 Z" fill="#d32f2f"/>
  <!-- Shallot bulb inner -->
  <path d="M32 20 C32 20 34 25 38 30 C42 35 41 42 34 46 C32 48 32 48 30 46 C23 42 22 35 26 30 C30 25 32 20 32 20 Z" fill="#ef5350"/>
  <!-- Green Sprout -->
  <path d="M32 16 C30 11 25 8 20 8 C25 10 28 13 30 16 Z" fill="#81c784"/>
  <path d="M32 16 C34 10 39 7 44 7 C39 9 36 12 34 16 Z" fill="#a5d6a7"/>
</svg>
